<?xml version="1.0" standalone="no"?>
<!DOCTYPE svg PUBLIC "-//W3C//DTD SVG 20010904//EN"
 "http://www.w3.org/TR/2001/REC-SVG-20010904/DTD/svg10.dtd">
<svg version="1.0" xmlns="http://www.w3.org/2000/svg"
 width="300.000000pt" height="300.000000pt" viewBox="0 0 300.000000 300.000000"
 preserveAspectRatio="xMidYMid meet">
<metadata>
Created by potrace 1.10, written by Peter Selinger 2001-2011
</metadata>
<g transform="translate(0.000000,300.000000) scale(0.100000,-0.100000)"
fill="#000000" stroke="none">
<path d="M1757 2176 c-73 -27 -107 -76 -107 -156 0 -54 10 -81 43 -117 11 -13
19 -24 16 -26 -2 -2 -18 -13 -36 -25 -70 -49 -92 -158 -44 -223 28 -38 27 -46
-14 -59 -43 -14 -101 -80 -109 -125 -9 -49 8 -113 41 -147 33 -35 74 -58 102
-58 30 0 33 -14 11 -61 -26 -58 -26 -159 -1 -214 24 -52 74 -98 136 -127 49
-22 60 -23 395 -26 190 -2 364 0 388 3 53 8 116 61 133 112 16 50 7 126 -22
168 -40 59 -87 75 -220 75 -64 0 -118 3 -122 6 -3 4 1 17 10 30 15 23 19 24
152 24 212 1 255 16 299 100 28 55 28 101 1 158 -22 45 -64 78 -111 89 -33 7
-34 13 -8 55 42 69 20 178 -47 226 l-27 20 27 31 c81 96 39 237 -80 270 -60
17 -758 14 -806 -3z m840 -52 c58 -44 67 -135 18 -191 -23 -27 -26 -28 -156
-33 l-132 -5 -23 -37 c-20 -31 -21 -38 -8 -48 11 -10 26 -8 72 13 110 48 212
43 270 -14 82 -80 23 -219 -92 -219 -48 0 -118 32 -199 92 -57 42 -60 43 -135
43 -73 0 -81 -2 -161 -48 -192 -109 -345 -116 -396 -18 -19 38 -19 74 0 115
23 48 61 65 191 82 65 8 129 21 143 29 24 13 14 14 -99 15 -106 0 -130 3 -157
20 -44 27 -61 82 -42 141 12 36 22 48 59 67 45 23 46 23 432 20 375 -3 387 -4
415 -24z m-312 -453 c50 -22 107 -70 99 -82 -6 -11 -364 -12 -381 -1 -13 8
110 85 152 95 43 10 92 6 130 -12z m446 -148 c54 -32 76 -122 44 -183 -28 -54
-55 -60 -253 -60 l-179 0 -6 -29 c-4 -17 -20 -39 -39 -52 -28 -21 -45 -24
-113 -24 -97 0 -138 18 -156 70 l-13 35 -72 0 c-115 0 -121 -7 -79 -90 16 -32
33 -52 48 -55 12 -3 173 -6 358 -7 321 -3 338 -4 359 -23 39 -35 53 -74 48
-133 -4 -46 -10 -60 -36 -83 -19 -17 -48 -30 -74 -34 -24 -4 -194 -5 -378 -3
l-335 3 -56 26 c-119 56 -156 179 -91 306 12 23 26 44 32 48 5 3 10 15 10 26
0 17 -7 19 -59 19 -75 0 -120 28 -141 88 -13 37 -13 47 0 84 10 27 27 50 49
65 l34 23 534 0 c486 0 538 -2 564 -17z m-727 -315 c9 -12 16 -26 16 -30 0
-14 -75 -8 -98 8 -37 26 -28 44 22 44 35 0 48 -5 60 -22z"/>
<path d="M733 2163 c-23 -8 -54 -29 -68 -46 -15 -18 -33 -40 -41 -49 -11 -15
-31 -18 -111 -18 -107 0 -159 -16 -200 -61 -70 -76 -50 -212 38 -262 21 -12
39 -25 39 -29 0 -3 -11 -20 -25 -36 -72 -86 -58 -203 33 -283 21 -19 54 -42
72 -52 19 -10 29 -21 24 -27 -5 -4 -50 -10 -100 -13 -95 -5 -134 -18 -170 -59
-36 -39 -47 -70 -47 -130 0 -71 33 -127 96 -160 l42 -23 530 0 530 0 37 23
c20 13 47 40 60 60 31 50 32 140 2 196 -40 77 -89 95 -251 96 -58 0 -103 4
-103 9 0 6 27 24 60 42 61 33 111 83 130 133 16 44 12 136 -10 184 l-19 42 40
26 c90 57 105 188 31 268 -43 45 -80 56 -197 56 -88 0 -107 3 -119 18 -54 64
-86 91 -121 101 -54 15 -131 13 -182 -6z m197 -45 c37 -19 47 -31 58 -65 l14
-43 124 0 c179 0 224 -24 232 -124 8 -93 -43 -146 -139 -146 l-44 0 38 -31
c43 -35 62 -68 70 -120 16 -107 -51 -197 -173 -233 -41 -12 -40 -11 -40 -60 0
-29 4 -36 31 -45 18 -6 86 -11 153 -11 76 0 130 -5 145 -13 55 -28 78 -133 45
-203 -31 -65 -17 -64 -599 -64 -598 0 -577 -3 -616 77 -34 70 -15 149 45 189
19 11 55 16 148 17 l123 2 1 51 1 50 -48 17 c-56 20 -104 58 -124 98 -19 36
-19 112 0 148 19 38 68 78 105 86 21 5 30 13 30 26 0 16 -7 19 -50 19 -27 0
-65 8 -84 17 -92 43 -86 199 9 239 23 9 72 14 153 14 l120 0 5 28 c8 41 36 71
82 87 61 22 134 19 185 -7z"/>
<path d="M627 1691 c-45 -9 -60 -22 -55 -47 5 -29 44 -42 153 -49 130 -9 284
6 301 30 16 21 8 42 -20 57 -25 14 -322 21 -379 9z m253 -40 c34 -7 16 -8 -75
-8 -77 0 -107 2 -85 7 47 10 106 10 160 1z"/>
<path d="M712 1293 c4 -38 39 -53 121 -53 l67 0 0 40 0 40 -96 0 -95 0 3 -27z"/>
</g>
</svg>
