<?xml version="1.0" encoding="UTF-8"?>
<svg version="1.1" xmlns="http://www.w3.org/2000/svg" width="512" height="512">
<path d="M0 0 C1.01201477 0.00054382 2.02402954 0.00108765 3.06671143 0.00164795 C19.59887291 0.04238923 35.523992 0.95817716 51.75 4.375 C52.78125 4.58930664 53.8125 4.80361328 54.875 5.02441406 C101.10680927 14.94980561 143.72188765 37.60106665 177.75 70.375 C178.7390332 71.32318604 178.7390332 71.32318604 179.74804688 72.29052734 C189.23630305 81.43497479 197.9762044 90.73234009 205.75 101.375 C206.60806152 102.52605017 207.46613451 103.67709177 208.32421875 104.828125 C214.36236829 113.01930614 219.72095521 121.53304105 224.75 130.375 C225.11448242 131.00680176 225.47896484 131.63860352 225.85449219 132.28955078 C240.78473018 158.37464001 250.26385054 187.71085114 254.75 217.375 C254.92660156 218.49745117 255.10320312 219.61990234 255.28515625 220.77636719 C256.9420586 232.38947743 257.14873513 243.90679945 257.125 255.625 C257.12418427 257.14302216 257.12418427 257.14302216 257.12335205 258.69171143 C257.08261077 275.22387291 256.16682284 291.148992 252.75 307.375 C252.42854004 308.921875 252.42854004 308.921875 252.10058594 310.5 C242.17519439 356.73180927 219.52393335 399.34688765 186.75 433.375 C186.11787598 434.03435547 185.48575195 434.69371094 184.83447266 435.37304688 C175.69002521 444.86130305 166.39265991 453.6012044 155.75 461.375 C154.59894983 462.23306152 153.44790823 463.09113451 152.296875 463.94921875 C144.10569386 469.98736829 135.59195895 475.34595521 126.75 480.375 C126.11819824 480.73948242 125.48639648 481.10396484 124.83544922 481.47949219 C98.75035999 496.40973018 69.41414886 505.88885054 39.75 510.375 C38.62754883 510.55160156 37.50509766 510.72820312 36.34863281 510.91015625 C24.73552257 512.5670586 13.21820055 512.77373513 1.5 512.75 C-0.01802216 512.74918427 -0.01802216 512.74918427 -1.56671143 512.74835205 C-18.09887291 512.70761077 -34.023992 511.79182284 -50.25 508.375 C-51.796875 508.05354004 -51.796875 508.05354004 -53.375 507.72558594 C-99.60680927 497.80019439 -142.22188765 475.14893335 -176.25 442.375 C-176.90935547 441.74287598 -177.56871094 441.11075195 -178.24804688 440.45947266 C-187.73630305 431.31502521 -196.4762044 422.01765991 -204.25 411.375 C-205.10806152 410.22394983 -205.96613451 409.07290823 -206.82421875 407.921875 C-212.86236829 399.73069386 -218.22095521 391.21695895 -223.25 382.375 C-223.61448242 381.74319824 -223.97896484 381.11139648 -224.35449219 380.46044922 C-239.28473018 354.37535999 -248.76385054 325.03914886 -253.25 295.375 C-253.51490234 293.69132324 -253.51490234 293.69132324 -253.78515625 291.97363281 C-255.4420586 280.36052257 -255.64873513 268.84320055 -255.625 257.125 C-255.62445618 256.11298523 -255.62391235 255.10097046 -255.62335205 254.05828857 C-255.58261077 237.52612709 -254.66682284 221.601008 -251.25 205.375 C-251.03569336 204.34375 -250.82138672 203.3125 -250.60058594 202.25 C-240.67519439 156.01819073 -218.02393335 113.40311235 -185.25 79.375 C-184.61787598 78.71564453 -183.98575195 78.05628906 -183.33447266 77.37695312 C-174.19002521 67.88869695 -164.89265991 59.1487956 -154.25 51.375 C-153.09894983 50.51693848 -151.94790823 49.65886549 -150.796875 48.80078125 C-142.60569386 42.76263171 -134.09195895 37.40404479 -125.25 32.375 C-124.61819824 32.01051758 -123.98639648 31.64603516 -123.33544922 31.27050781 C-97.25035999 16.34026982 -67.91414886 6.86114946 -38.25 2.375 C-37.12754883 2.19839844 -36.00509766 2.02179687 -34.84863281 1.83984375 C-23.23552257 0.1829414 -11.71820055 -0.02373513 0 0 Z " fill="#000000" transform="translate(255.25,-0.375)"/>
<path d="M0 0 C12.55432627 5.93434255 21.4691795 22.92805691 26.17553711 35.33227539 C31.95949995 51.61252125 31.32052481 66.82114671 31.07421875 83.98046875 C47.57421875 83.98046875 64.07421875 83.98046875 81.07421875 83.98046875 C81.07421875 99.16046875 81.07421875 114.34046875 81.07421875 129.98046875 C64.57421875 129.98046875 48.07421875 129.98046875 31.07421875 129.98046875 C31.13608481 148.3009319 31.13608481 148.3009319 31.234375 166.62109375 C31.28257817 174.10188977 31.32667245 181.58254054 31.34521484 189.06347656 C31.36044759 195.10019423 31.39501034 201.13652984 31.44252777 207.17307663 C31.4572735 209.46690917 31.46525582 211.76079628 31.4661026 214.05467606 C31.47516849 226.30809204 31.57079446 237.41571079 36.07421875 248.98046875 C36.47058281 250.00735809 36.47058281 250.00735809 36.87495422 251.05499268 C45.53646815 271.27568934 64.27804378 282.56011092 83.07421875 291.98046875 C83.07421875 292.64046875 83.07421875 293.30046875 83.07421875 293.98046875 C80.85808218 295.65185667 78.63624115 297.20071774 76.32421875 298.73046875 C74.85739446 299.71904616 73.39128236 300.70868087 71.92578125 301.69921875 C71.14106445 302.22773438 70.35634766 302.75625 69.54785156 303.30078125 C65.2326202 306.23098178 60.96766917 309.23271683 56.69921875 312.23046875 C51.87980611 315.60964141 51.87980611 315.60964141 49.49316406 317.26367188 C47.79017024 318.47233685 46.11438197 319.71979764 44.45996094 320.99414062 C43.59790039 321.64447266 42.73583984 322.29480469 41.84765625 322.96484375 C41.07599121 323.56522461 40.30432617 324.16560547 39.50927734 324.78417969 C36.27031698 326.37540746 34.50616331 325.9184628 31.07421875 324.98046875 C28.57017503 323.72142095 26.25672672 322.45090493 23.88671875 320.98046875 C23.23106934 320.57965088 22.57541992 320.17883301 21.89990234 319.76586914 C15.86189723 315.99414138 10.43276466 311.66285745 5.07421875 306.98046875 C3.94113281 306.06394531 3.94113281 306.06394531 2.78515625 305.12890625 C-11.90161331 292.93317888 -24.16426829 274.27955194 -26.72999382 255.16296196 C-27.15556932 250.41896163 -27.05451582 245.65377719 -27.03930664 240.89477539 C-27.03945267 239.69406403 -27.03959869 238.49335266 -27.03974915 237.2562561 C-27.039174 233.98196436 -27.03417661 230.70771597 -27.02717519 227.43343282 C-27.02090191 224.00481306 -27.02033471 220.57619236 -27.01914978 217.14756775 C-27.01604815 210.66312912 -27.00785057 204.17870745 -26.99780029 197.69427627 C-26.9866028 190.30852527 -26.98111955 182.92277342 -26.97610486 175.53701603 C-26.96566693 160.3514906 -26.94788753 145.16598201 -26.92578125 129.98046875 C-34.18578125 129.98046875 -41.44578125 129.98046875 -48.92578125 129.98046875 C-48.92578125 119.09046875 -48.92578125 108.20046875 -48.92578125 96.98046875 C-41.99578125 95.33046875 -35.06578125 93.68046875 -27.92578125 91.98046875 C-27.05729967 69.11045372 -33.74850817 50.22382342 -48.92578125 32.98046875 C-48.3337793 32.56909668 -47.74177734 32.15772461 -47.13183594 31.73388672 C-36.32572989 24.22374712 -25.52280849 16.70907462 -14.73828125 9.16796875 C-13.90844727 8.58837402 -13.07861328 8.0087793 -12.22363281 7.41162109 C-11.45116211 6.87102051 -10.67869141 6.33041992 -9.8828125 5.7734375 C-9.2122583 5.30446045 -8.5417041 4.8354834 -7.85083008 4.35229492 C-6.47449 3.37148897 -5.12635374 2.35061677 -3.79882812 1.3046875 C-1.92578125 -0.01953125 -1.92578125 -0.01953125 0 0 Z " fill="#00FD87" transform="translate(238.92578125,93.01953125)"/>
</svg>
